<svg xmlns="http://www.w3.org/2000/svg" width="37.5" height="37.5" viewBox="0 0 37.5 37.5"><defs><style>.a{opacity:0.29;}</style></defs><g class="a"><g transform="translate(19.565 4.893)"><path d="M268.8,64.254a.816.816,0,0,0-1.153,0L256.233,75.667a.815.815,0,0,0,1.153,1.153L268.8,65.407A.816.816,0,0,0,268.8,64.254Z" transform="translate(-255.995 -64.016)"/></g><g transform="translate(30.978 4.891)"><path d="M406.148,64a.816.816,0,0,0-.815.815V74.6a.815.815,0,0,0,1.63,0V64.815A.816.816,0,0,0,406.148,64Z" transform="translate(-405.333 -64)"/></g><g transform="translate(21.196 4.891)"><path d="M287.931,64h-9.783a.815.815,0,1,0,0,1.63h9.783a.815.815,0,1,0,0-1.63Z" transform="translate(-277.333 -64)"/></g><g transform="translate(4.891 19.566)"><path d="M76.8,256.254a.816.816,0,0,0-1.153,0L64.233,267.667a.815.815,0,0,0,1.153,1.153L76.8,257.407A.816.816,0,0,0,76.8,256.254Z" transform="translate(-63.995 -256.016)"/></g><g transform="translate(4.891 21.196)"><path d="M64.815,277.333a.816.816,0,0,0-.815.815v9.783a.815.815,0,1,0,1.63,0v-9.783A.815.815,0,0,0,64.815,277.333Z" transform="translate(-64 -277.333)"/></g><g transform="translate(4.891 30.978)"><path d="M74.6,405.333H64.815a.815.815,0,1,0,0,1.63H74.6a.815.815,0,0,0,0-1.63Z" transform="translate(-64 -405.333)"/></g><path d="M35.054,0H2.446A2.449,2.449,0,0,0,0,2.446V35.054A2.449,2.449,0,0,0,2.446,37.5H35.054A2.449,2.449,0,0,0,37.5,35.054V2.446A2.449,2.449,0,0,0,35.054,0Zm.815,35.054a.818.818,0,0,1-.815.815H2.446a.818.818,0,0,1-.815-.815V2.446a.818.818,0,0,1,.815-.815H35.054a.818.818,0,0,1,.815.815V35.054Z"/></g></svg>