<svg height="512" fill="#fff" viewBox="0 0 46 46" width="512" xmlns="http://www.w3.org/2000/svg">
	
	<path d="m14.5 7a7.5 7.5 0 1 0 7.5 7.5 7.5 7.5 0 0 0 -7.5-7.5zm0 13a5.5 5.5 0 1 1 5.5-5.5 5.51 5.51 0 0 1 -5.5 5.5z"/><path d="m33 10h-6a3 3 0 0 0 -3 3v9h9a3 3 0 0 0 3-3v-6a3 3 0 0 0 -3-3zm1 9a1 1 0 0 1 -1 1h-7v-7a1 1 0 0 1 1-1h6a1 1 0 0 1 1 1z"/><path d="m12.54 24a2.54 2.54 0 0 0 -2.54 2.54v6.92a2.54 2.54 0 0 0 2.54 2.54h6.92a2.54 2.54 0 0 0 2.54-2.54v-9.46zm7.46 9.46a.54.54 0 0 1 -.54.54h-6.92a.54.54 0 0 1 -.54-.54v-6.92a.54.54 0 0 1 .54-.54h7.46z"/><path d="m36 24h-12v12a3 3 0 0 0 3 3h9a3 3 0 0 0 3-3v-9a3 3 0 0 0 -3-3zm1 12a1 1 0 0 1 -1 1h-9a1 1 0 0 1 -1-1v-10h10a1 1 0 0 1 1 1z"/></svg>