<svg xmlns="http://www.w3.org/2000/svg" width="82.063" height="114" viewBox="0 0 82.063 114"><defs><style>.a{fill:#76e6d5;}.b{fill:#00ccac;}.c{fill:#f5e277;}.d{fill:#fab659;}</style></defs><g transform="translate(0 0.001)"><path class="a" d="M126.342,1.047a6.421,6.421,0,0,0-7.032,0l-.8.524a6.421,6.421,0,0,1-7.032,0l-.8-.524a6.419,6.419,0,0,0-7.031,0l-.8.524a6.421,6.421,0,0,1-7.032,0l-.8-.524a6.423,6.423,0,0,0-8.695,9.174,19.818,19.818,0,0,0,5.472,5l15.375,5.052,15.375-5.052a19.818,19.818,0,0,0,5.472-5,6.426,6.426,0,0,0-1.663-9.174Zm0,0" transform="translate(-66.127)"/><path class="b" d="M98.665,15.226a19.818,19.818,0,0,1-5.472-5,6.424,6.424,0,0,1,1.663-9.174c.024-.017.05-.03.075-.045a6.421,6.421,0,0,0-8.619,9.219,19.818,19.818,0,0,0,5.472,5l15.375,5.052,3.441-1.13Zm0,0" transform="translate(-66.127 -0.005)"/><path class="a" d="M25.656,96.1c-12.778,4.184-18.6,17.95-21.684,29.938-3.593,13.991-7.128,31.919.839,44.953,7.513,12.29,23.16,13.784,36.22,13.784s28.707-1.494,36.22-13.784c7.968-13.034,4.432-30.962.839-44.953-3.079-11.988-8.905-25.752-21.684-29.938L41.032,91.051Zm0,0" transform="translate(0 -70.778)"/><path class="b" d="M11.693,170.994c-7.968-13.034-4.432-30.962-.839-44.953,3.079-11.988,8.905-25.752,21.684-29.938l11.935-3.922-3.441-1.131L25.656,96.1c-12.778,4.184-18.6,17.949-21.684,29.938-3.593,13.991-7.128,31.919.839,44.953,7.513,12.29,23.16,13.784,36.22,13.784,1.13,0,2.279-.011,3.441-.04-12.266-.3-25.917-2.517-32.779-13.744Zm0,0" transform="translate(0 -70.778)"/><path class="c" d="M128.342,68.363H97.591a5.052,5.052,0,0,0,0,10.1h30.751a5.052,5.052,0,0,0,0-10.1Zm0,0" transform="translate(-71.935 -53.143)"/><path class="d" d="M99.42,73.415a5.051,5.051,0,0,1,5.051-5.051H97.59a5.052,5.052,0,0,0,0,10.1h6.881A5.052,5.052,0,0,1,99.42,73.415Zm0,0" transform="translate(-71.934 -53.143)"/><path class="b" d="M145.937,291.656c-5.516-.137-9.664-3.1-9.664-5.652,0-1.277,1.139-3.191,2.553-3.191,1.732,0,3.1,2.962,7.111,3.419V277.16c-4.149-1.55-8.844-3.328-8.844-9.163,0-5.789,4.285-8.3,8.844-8.889v-1.277c0-.592.684-1.139,1.55-1.139.775,0,1.55.547,1.55,1.139v1.185c2.962.091,7.795.958,7.795,3.6,0,1.048-.73,3.145-2.416,3.145-1.276,0-2.325-1.459-5.379-1.686V272.1c4.057,1.5,8.615,3.556,8.615,9.756,0,5.606-3.509,8.844-8.615,9.664v1.413c0,.592-.775,1.139-1.55,1.139-.866,0-1.55-.547-1.55-1.139ZM146.3,271.1v-6.883c-2.279.364-3.647,1.459-3.647,3.191,0,2.006,1.55,2.872,3.647,3.692Zm2.371,7.157v7.931c2-.41,3.418-1.6,3.418-3.737C152.091,280.214,150.632,279.12,148.673,278.254Zm0,0" transform="translate(-105.931 -199.539)"/></g></svg>