<svg xmlns="http://www.w3.org/2000/svg" width="106.331" height="97.333" viewBox="0 0 106.331 97.333"><defs><style>.a{fill:#fdbf00;}.b{fill:#ff9100;}.c{fill:#ff641a;}.d{fill:#ffe470;}.e{fill:#ffda2d;}.f{fill:#ffd9b3;}.g{fill:#fc9;}.h{fill:#4d2ee6;}.i{fill:#012f7e;}</style></defs><g transform="translate(-0.002 -21.637)"><g transform="translate(10.114 21.637)"><g transform="translate(0 5.714)"><path class="a" d="M132.862,49.118h-30.1V51.4H82.109V49.118h-29.9a3.567,3.567,0,0,0-3.567,3.567v66.552a3.369,3.369,0,0,0,3.369,3.369h79.047a5.176,5.176,0,0,0,5.176-5.176V52.487a3.368,3.368,0,0,0-3.369-3.369Z" transform="translate(-48.639 -49.118)"/></g><path class="b" d="M298.407,21.638H269.615v2.287H259.324v18.69h-.035v58.342h40.6a3.2,3.2,0,0,0,3.2-3.2V25.219a4.694,4.694,0,0,0-4.678-3.581Z" transform="translate(-215.493 -21.638)"/><path class="b" d="M132.665,21.638h-29.9v2.287H82.109V21.638H51.926a3.288,3.288,0,0,0-3.287,3.289V42.615h87.592V25.207a3.568,3.568,0,0,0-3.566-3.569Z" transform="translate(-48.639 -21.638)"/><path class="c" d="M299.726,21.638H269.615v2.287H259.289v18.69h43.8V25A3.36,3.36,0,0,0,299.726,21.638Z" transform="translate(-215.493 -21.638)"/><path class="d" d="M228.9,57.214H210.992a1.37,1.37,0,0,1-1.37-1.37V21.638h20.652V55.845A1.37,1.37,0,0,1,228.9,57.214Z" transform="translate(-176.152 -21.638)"/><path class="e" d="M259.289,21.711V57.14a.074.074,0,0,0,.074.074h9.206a1.046,1.046,0,0,0,1.046-1.046V21.711a.074.074,0,0,0-.074-.074H259.363a.074.074,0,0,0-.074.074Z" transform="translate(-215.493 -21.637)"/></g><path class="f" d="M57.979,334.067a87.693,87.693,0,0,0,20.286-2.382l11.121-2.661.048-27.362-7.549-3.835a21.4,21.4,0,0,0-18.763-.3l-6.989,3.249a11.555,11.555,0,0,1-4.872,1.077H35.286a4.141,4.141,0,1,0,0,8.281H63.414a3.682,3.682,0,0,1,3.715,3.913,3.607,3.607,0,0,1-3.594,3.3l-32.19-.451a16.577,16.577,0,0,1-11.989-5.256L6.625,299.167a3.711,3.711,0,0,0-2.735-1.2c-1.167,0-2.81,1.337-3.6,2.474-.031.045.406-.7.381-.647-.727,1.408-1.017,3.733-.1,4.848l16.245,19.694c5.515,6.686,14.115,9.732,22.781,9.732H57.979Z" transform="translate(0 -216.931)"/><path class="g" d="M100.892,387.747a3.607,3.607,0,0,1-3.48,2.663l-32.19-.451a16.482,16.482,0,0,1-8.158-2.212H42.74L50.7,397.4c5.515,6.686,14.115,9.732,22.781,9.732H91.855a87.7,87.7,0,0,0,20.286-2.382l11.121-2.661.025-14.338h-22.4Z" transform="translate(-33.853 -289.992)"/><path class="h" d="M439.835,328.912h-5.156a6.29,6.29,0,0,1-6.027-6.524v-29.18a6.29,6.29,0,0,1,6.027-6.524h5.156a6.29,6.29,0,0,1,6.027,6.524v29.18A6.29,6.29,0,0,1,439.835,328.912Z" transform="translate(-339.53 -209.941)"/><path class="i" d="M428.652,387.748V402.44a6.29,6.29,0,0,0,6.027,6.524h5.156a6.29,6.29,0,0,0,6.027-6.524V387.748Z" transform="translate(-339.53 -289.993)"/></g></svg>