<svg xmlns="http://www.w3.org/2000/svg" xmlns:xlink="http://www.w3.org/1999/xlink" width="88.453" height="101.333" viewBox="0 0 88.453 101.333"><defs><style>.a{fill:url(#a);}.b{fill:url(#b);}.c{fill:url(#c);}.d{fill:#95d1d6;}</style><linearGradient id="a" x1="0.02" y1="1.001" x2="0.98" y2="-0.001" gradientUnits="objectBoundingBox"><stop offset="0" stop-color="#fbebca"/><stop offset="1" stop-color="#fcf2dc"/></linearGradient><linearGradient id="b" x1="0.02" y1="1.001" x2="0.98" y2="-0.001" gradientUnits="objectBoundingBox"><stop offset="0" stop-color="#b8e1e3"/><stop offset="1" stop-color="#edf7f8"/></linearGradient><linearGradient id="c" x1="0.179" y1="0.77" x2="0.821" y2="0.012" gradientUnits="objectBoundingBox"><stop offset="0" stop-color="#e87676"/><stop offset="1" stop-color="#f2b3b3"/></linearGradient></defs><g transform="translate(-36 -3.928)"><g transform="translate(36 3.928)"><rect class="a" width="75.587" height="72.371" rx="12" transform="translate(12.866 28.963)"/><rect class="b" width="75.587" height="72.371" rx="12" transform="translate(0 16.097)"/><path class="c" d="M159.966,6.815C155.7,3.178,150.1,2.982,144.726,6.2c-5.373-3.216-10.976-3.02-15.24.617a13.4,13.4,0,0,0-3.46,15.752c4.418,8.835,17.164,14.688,17.7,14.933a2.412,2.412,0,0,0,1.99,0c.54-.245,13.286-6.1,17.7-14.933A13.4,13.4,0,0,0,159.966,6.815Z" transform="translate(-106.932 -3.928)"/><g transform="translate(16.082 41.829)"><path class="d" d="M182.412,216.825h25.732a2.412,2.412,0,0,0,0-4.825H182.412a2.412,2.412,0,0,0,0,4.825Z" transform="translate(-167.134 -212)"/><circle class="d" cx="2.412" cy="2.412" r="2.412"/><path class="d" d="M208.144,276H182.412a2.412,2.412,0,0,0,0,4.825h25.732a2.412,2.412,0,0,0,0-4.825Z" transform="translate(-167.134 -263.134)"/><circle class="d" cx="2.412" cy="2.412" r="2.412" transform="translate(0 12.866)"/><path class="d" d="M208.144,340H182.412a2.412,2.412,0,0,0,0,4.825h25.732a2.412,2.412,0,0,0,0-4.825Z" transform="translate(-167.134 -314.268)"/><circle class="d" cx="2.412" cy="2.412" r="2.412" transform="translate(0 25.732)"/></g></g></g></svg>